<?xml version="1.0" encoding="UTF-8" standalone="no"?>
<!-- Created with Inkscape (http://www.inkscape.org/) -->

<svg
   version="1.1"
   id="svg1"
   width="1333.3333"
   height="1333.3333"
   viewBox="0 0 1333.3333 1333.3333"
   sodipodi:docname="branding.svg"
   inkscape:version="1.3.2 (091e20e, 2023-11-25)"
   inkscape:export-filename="WordPress-logotype-wmark.svg"
   inkscape:export-xdpi="79.121819"
   inkscape:export-ydpi="79.121819"
   xml:space="preserve"
   xmlns:inkscape="http://www.inkscape.org/namespaces/inkscape"
   xmlns:sodipodi="http://sodipodi.sourceforge.net/DTD/sodipodi-0.dtd"
   xmlns="http://www.w3.org/2000/svg"
   xmlns:svg="http://www.w3.org/2000/svg"><defs
     id="defs1"><clipPath
       clipPathUnits="userSpaceOnUse"
       id="clipPath1"><path
         d="M 0,1000 H 1000 V 0 H 0 Z"
         transform="translate(0,-2.5000001e-5)"
         id="path1" /></clipPath><clipPath
       clipPathUnits="userSpaceOnUse"
       id="clipPath3"><path
         d="M 0,1000 H 1000 V 0 H 0 Z"
         transform="matrix(1.3333333,0,0,-1.3333333,0,1333.3333)"
         id="path3" /></clipPath><clipPath
       clipPathUnits="userSpaceOnUse"
       id="clipPath5"><path
         d="M 0,1000 H 1000 V 0 H 0 Z"
         transform="translate(-499.99991,-833.33332)"
         id="path5" /></clipPath><clipPath
       clipPathUnits="userSpaceOnUse"
       id="clipPath7"><path
         d="M 0,1000 H 1000 V 0 H 0 Z"
         transform="translate(-743.75922,-633.26762)"
         id="path7" /></clipPath></defs><sodipodi:namedview
     id="namedview1"
     pagecolor="#505050"
     bordercolor="#ffffff"
     borderopacity="1"
     inkscape:showpageshadow="0"
     inkscape:pageopacity="0"
     inkscape:pagecheckerboard="1"
     inkscape:deskcolor="#505050"
     inkscape:zoom="0.35424446"
     inkscape:cx="426.25931"
     inkscape:cy="578.69641"
     inkscape:window-width="1512"
     inkscape:window-height="827"
     inkscape:window-x="0"
     inkscape:window-y="38"
     inkscape:window-maximized="0"
     inkscape:current-layer="layer-MC2"><inkscape:page
       x="0"
       y="0"
       inkscape:label="1"
       id="page1"
       width="1333.3333"
       height="1333.3333"
       margin="0"
       bleed="0" /></sodipodi:namedview><g
     id="layer-MC0"
     inkscape:groupmode="layer"
     inkscape:label="Legend  (Ignore content)" /><g
     id="layer-MC1"
     inkscape:groupmode="layer"
     inkscape:label="Word Mark" /><g
     id="layer-MC2"
     inkscape:groupmode="layer"
     inkscape:label="W Mark"><g
       opacity="0"
       id="g2"
       clip-path="url(#clipPath3)"
       transform="matrix(0.90998927,0,0,0.88351553,60.007148,70.596651)"><path
         d="M 1000,0 H 0 v 1000 h 1000 z"
         style="fill:#ffffff;fill-opacity:1;fill-rule:nonzero;stroke:none"
         transform="matrix(1.3333333,0,0,-1.3333333,0,1333.3333)"
         clip-path="url(#clipPath1)"
         id="path2" /></g><path
       id="path4"
       d="m 0,0 c -184.095,0 -333.333,-149.238 -333.333,-333.333 0,-184.095 149.238,-333.334 333.333,-333.334 184.095,0 333.333,149.239 333.333,333.334 C 333.333,-149.238 184.095,0 0,0 m 0,-20 c 42.309,0 83.341,-8.282 121.957,-24.615 18.562,-7.851 36.467,-17.57 53.217,-28.885 16.596,-11.212 32.202,-24.089 46.386,-38.273 14.184,-14.184 27.061,-29.791 38.273,-46.386 11.316,-16.75 21.034,-34.655 28.885,-53.217 16.334,-38.616 24.615,-79.649 24.615,-121.957 0,-42.309 -8.281,-83.341 -24.615,-121.957 -7.851,-18.562 -17.569,-36.467 -28.885,-53.217 -11.212,-16.596 -24.089,-32.202 -38.273,-46.386 -14.184,-14.184 -29.79,-27.061 -46.386,-38.273 -16.75,-11.316 -34.655,-21.034 -53.217,-28.885 C 83.341,-638.385 42.309,-646.667 0,-646.667 c -42.308,0 -83.341,8.282 -121.957,24.616 -18.562,7.851 -36.467,17.569 -53.217,28.885 -16.595,11.212 -32.202,24.089 -46.386,38.273 -14.184,14.184 -27.061,29.79 -38.273,46.386 -11.315,16.75 -21.034,34.655 -28.885,53.217 -16.333,38.616 -24.615,79.648 -24.615,121.957 0,42.308 8.282,83.341 24.615,121.957 7.851,18.562 17.57,36.467 28.885,53.217 11.212,16.595 24.089,32.202 38.273,46.386 14.184,14.184 29.791,27.061 46.386,38.273 16.75,11.315 34.655,21.034 53.217,28.885 C -83.341,-28.282 -42.308,-20 0,-20"
       style="fill:#32373c;fill-opacity:1;fill-rule:nonzero;stroke:none"
       transform="matrix(1.3333333,0,0,-1.3333333,666.66653,222.22227)"
       clip-path="url(#clipPath5)" /><path
       id="path6"
       d="m 0,0 c 1.193,-8.846 1.867,-18.337 1.867,-28.561 0,-28.177 -5.279,-59.864 -21.129,-99.49 l -84.839,-245.297 c 82.583,48.146 138.12,137.615 138.12,240.091 C 34.019,-84.963 21.677,-39.561 0,0 m -238.879,-157.554 -83.356,-242.173 c 24.894,-7.324 51.212,-11.318 78.476,-11.318 32.347,0 63.379,5.583 92.249,15.749 -0.743,1.188 -1.428,2.45 -1.993,3.828 z m 182.643,38.306 c 0,34.34 -12.335,58.108 -22.899,76.605 -14.082,22.892 -27.287,42.259 -27.287,65.15 0,25.53 19.361,49.298 46.647,49.298 1.233,0 2.4,-0.148 3.597,-0.224 -49.421,45.282 -115.265,72.929 -187.581,72.929 -97.049,0 -182.421,-49.795 -232.091,-125.197 6.522,-0.207 12.667,-0.337 17.877,-0.337 29.048,0 74.035,3.531 74.035,3.531 14.966,0.877 16.735,-21.122 1.776,-22.891 0,0 -15.053,-1.763 -31.789,-2.639 l 101.15,-300.884 60.797,182.31 -43.275,118.574 c -14.966,0.876 -29.134,2.639 -29.134,2.639 -14.974,0.884 -13.22,23.768 1.762,22.891 0,0 45.863,-3.531 73.156,-3.531 29.048,0 74.042,3.531 74.042,3.531 14.974,0.877 16.736,-21.122 1.77,-22.891 0,0 -15.068,-1.763 -31.79,-2.639 l 100.386,-298.592 28.656,90.801 c 12.731,39.683 20.195,67.798 20.195,91.566 m -465.301,-14.009 c 0,-109.945 63.89,-204.968 156.56,-249.989 l -132.507,363.034 c -15.413,-34.543 -24.053,-72.773 -24.053,-113.045"
       style="fill:#32373c;fill-opacity:1;fill-rule:nonzero;stroke:none"
       transform="matrix(1.3333333,0,0,-1.3333333,991.67893,488.97653)"
       clip-path="url(#clipPath7)" /></g><g
     id="layer-MC3"
     inkscape:groupmode="layer"
     inkscape:label="Alternative" /><g
     id="layer-MC4"
     inkscape:groupmode="layer"
     inkscape:label="Standard"><g
       style="fill:none;fill-opacity:1;stroke:#53a5e2;stroke-width:2;stroke-linecap:round;stroke-linejoin:round;stroke-opacity:1"
       id="g1"
       transform="matrix(24.249967,0,0,24.249967,386.94449,547.81474)"><polyline
         points="8 17 12 21 16 17"
         id="polyline1"
         style="fill:none;fill-opacity:1;stroke:#53a5e2;stroke-opacity:1" /><line
         x1="12"
         y1="12"
         x2="12"
         y2="21"
         id="line1"
         style="fill:none;fill-opacity:1;stroke:#53a5e2;stroke-opacity:1" /><path
         d="M 20.88,18.09 A 5,5 0 0 0 18,9 H 16.74 A 8,8 0 1 0 3,16.29"
         id="path1-8"
         style="fill:none;fill-opacity:1;stroke:#53a5e2;stroke-opacity:1" /></g></g></svg>
